<svg xmlns="http://www.w3.org/2000/svg" xmlns:xlink="http://www.w3.org/1999/xlink" viewBox="0 0 1024 130"><defs><style>.cls-1{fill:none;}.cls-2{fill:#fff;}.cls-3{fill:#333;}.cls-4{opacity:0.2;fill:url(#New_Pattern_Swatch_1);}</style><pattern id="New_Pattern_Swatch_1" data-name="New Pattern Swatch 1" width="85.12" height="141.86" patternTransform="translate(-1229.94 -283.72)" patternUnits="userSpaceOnUse" viewBox="0 0 85.12 141.86"><rect class="cls-1" width="85.12" height="141.86"/><path class="cls-2" d="M56.18,11.92V0H85.12V54.32c-.13.14,0,.46,0,.74s-.25.77,0,.8V66.69l-.14.15c-.24.28-.57.66-.28.9a1,1,0,0,0,.43.21v4.54H56.18V67a.46.46,0,0,0,.19-.36.94.94,0,0,0-.19-.5V52.89c.3-.05.55-.23.55-.53s-.22-1-.55-1.06V32.69a.55.55,0,0,0,.52.24c.37,0,.59-.08.59-.45s-.14-.91-.51-.91a.72.72,0,0,0-.6.49V13c.33,0,.67,0,.67-.31s-.17-.76-.54-.76Zm2.33,60.57a.7.7,0,0,0-.44-.21.59.59,0,0,0-.43.21ZM65,49.73c0-.37-.24-1.06-.61-1.06s-.5.37-.5.74,0,.87.36.87S65,50.1,65,49.73Zm.83-12.4c0-.37-.11-.77-.48-.77s-.9,0-.9.37a.81.81,0,0,0,.69.8C65.51,37.73,65.84,37.7,65.84,37.33Zm7.8,9.16c0-.37-.12-1-.49-1s-.89.28-.89.65.2,1,.57,1S73.63,46.86,73.63,46.49Zm.8,9.56c-.37,0-.8.2-.8.57s0,.87.36.87.75-.18.75-.55S74.81,56,74.44,56ZM82.65,41.2c-.37,0-.69,0-.69.4s.2,1,.57,1,.82-.19.82-.56A.81.81,0,0,0,82.65,41.2ZM81.54,17.44c0,.37,0,.87.36.87s1,0,1-.4-.1-.8-.47-.8S81.54,17.07,81.54,17.44ZM80,6.7c0,.37.3,1.3.67,1.3s.88-.68.88-1.05-.12-1-.49-1S80,6.33,80,6.7Zm-2.37,20c0,.37.5.44.87.44s.82-.19.82-.56-.08-.72-.45-.72S77.63,26.31,77.63,26.68Zm-.26,36.52c0,.37.55,1.31.92,1.31s.43-.66.43-1-.49-1-.86-1S77.38,62.84,77.38,63.21ZM74.19,36.12c0,.37-.17,1,.2,1s1.19-.19,1.19-.56-.12-1-.49-1S74.19,35.75,74.19,36.12ZM72.94,12.36c0,.37.2,1,.57,1s.82-.19.82-.56-.12-1-.49-1S72.94,12,72.94,12.36Zm-.4,7.36c0-.37-.14-.91-.51-.91s-.67.45-.67.82.22.54.59.54S72.53,20.08,72.53,19.71ZM70.81,1.47l.09.09c.25.23.62.37.87.16l.16-.16c.25-.27.51-.67.31-.9S71.44.16,71.16.4,70.57,1.19,70.81,1.47Zm0,70.93.09.09h1c.25-.27.51-.67.31-.9s-.79-.49-1.07-.25S70.57,72.12,70.81,72.4ZM67.56,29.9c.37,0,1.19-.19,1.19-.56s-.05-.78-.42-.78-1,0-1,.38S67.19,29.9,67.56,29.9ZM66.46,66.5c.37,0,.95-.23.95-.6a.89.89,0,0,0-.8-.78c-.37,0-.5.14-.5.51S66.1,66.5,66.46,66.5Zm-2-58.88c0,.37.2,1,.57,1s.82-.19.82-.56-.32-1.31-.69-1.31S64.45,7.25,64.45,7.62Zm-1.51,9a.67.67,0,0,0,.67.67c.37,0,1.08-.37,1.08-.74s-.71-.74-1.08-.74S62.94,16.26,62.94,16.63ZM61,58.88c0,.37.1.81.47.81s.75-.18.75-.55-.24-1.06-.61-1.06S61,58.51,61,58.88ZM59.49,25.65a.67.67,0,0,0,.67.67c.37,0,.82-.19.82-.56s-.45-.93-.82-.93S59.49,25.28,59.49,25.65ZM57.4,2.17a.67.67,0,0,0,.67.67c.37,0,.82-.19.82-.56a1.11,1.11,0,0,0-.38-.71.7.7,0,0,0-.44-.21.59.59,0,0,0-.43.21A1,1,0,0,0,57.4,2.17Zm0,40.41a.67.67,0,0,0,.67.67c.37,0,.82-.19.82-.56s-.45-.93-.82-.93S57.4,42.2,57.4,42.57Z"/><path class="cls-3" d="M58.07,2.84c.37,0,.82-.19.82-.56a1.11,1.11,0,0,0-.38-.71.7.7,0,0,0-.44-.21.59.59,0,0,0-.43.21,1,1,0,0,0-.24.61A.67.67,0,0,0,58.07,2.84Z"/><path class="cls-3" d="M70.9,1.56c.25.23.62.37.87.16l.16-.16c.25-.27.51-.67.31-.9S71.44.16,71.16.4s-.6.78-.36,1.06Z"/><path class="cls-3" d="M63.61,17.3c.37,0,1.08-.37,1.08-.74s-.71-.74-1.08-.74-.67.45-.67.82A.67.67,0,0,0,63.61,17.3Z"/><path class="cls-3" d="M58.07,43.24c.37,0,.82-.19.82-.56s-.45-.93-.82-.93-.67.45-.67.82A.67.67,0,0,0,58.07,43.24Z"/><path class="cls-3" d="M60.16,26.32c.37,0,.82-.19.82-.56s-.45-.93-.82-.93-.67.45-.67.82A.67.67,0,0,0,60.16,26.32Z"/><path class="cls-3" d="M56.37,66.68a.94.94,0,0,0-.19-.5V67A.46.46,0,0,0,56.37,66.68Z"/><path class="cls-3" d="M78.5,27.13c.37,0,.82-.19.82-.56s-.08-.72-.45-.72-1.23.46-1.23.83S78.13,27.13,78.5,27.13Z"/><path class="cls-3" d="M67.56,29.9c.37,0,1.19-.19,1.19-.56s-.05-.78-.42-.78-1,0-1,.38S67.19,29.9,67.56,29.9Z"/><path class="cls-3" d="M73.14,45.44c-.37,0-.89.28-.89.65s.2,1,.57,1,.82-.19.82-.56S73.51,45.44,73.14,45.44Z"/><path class="cls-3" d="M65.35,36.56c-.37,0-.9,0-.9.37a.81.81,0,0,0,.69.8c.37,0,.69,0,.69-.4S65.72,36.56,65.35,36.56Z"/><path class="cls-3" d="M74.39,37.09c.37,0,1.19-.19,1.19-.56s-.12-1-.49-1-.89.28-.89.65S74,37.09,74.39,37.09Z"/><path class="cls-3" d="M82,41.59c0,.37.2,1,.57,1s.82-.19.82-.56a.81.81,0,0,0-.69-.8C82.28,41.2,82,41.22,82,41.59Z"/><path class="cls-3" d="M56.85,12.68c0-.37-.17-.76-.54-.76h-.13V13C56.51,13,56.85,13,56.85,12.68Z"/><path class="cls-3" d="M81.9,18.31c.37,0,1,0,1-.4s-.1-.8-.47-.8-.86,0-.86.33S81.53,18.31,81.9,18.31Z"/><path class="cls-3" d="M56.73,52.36c0-.35-.22-1-.55-1.06v1.59C56.47,52.84,56.73,52.66,56.73,52.36Z"/><path class="cls-3" d="M85,66.84c-.24.28-.57.66-.28.9a1,1,0,0,0,.43.21V66.69Z"/><path class="cls-3" d="M66.46,66.5c.37,0,.95-.23.95-.6a.89.89,0,0,0-.8-.78c-.37,0-.5.14-.5.51S66.1,66.5,66.46,66.5Z"/><path class="cls-3" d="M61.43,59.69c.37,0,.75-.18.75-.55s-.24-1.06-.61-1.06-.61.44-.61.81S61.06,59.69,61.43,59.69Z"/><path class="cls-3" d="M64.39,48.66c-.37,0-.5.37-.5.74s0,.87.36.87.75-.18.75-.55S64.76,48.66,64.39,48.66Z"/><path class="cls-3" d="M74.44,56c-.37,0-.8.2-.8.57s0,.87.36.87.75-.18.75-.55S74.81,56,74.44,56Z"/><path class="cls-3" d="M85.07,55.06c0,.35-.25.77,0,.8V54.32C85,54.46,85.07,54.78,85.07,55.06Z"/><path class="cls-3" d="M78.3,64.52c.37,0,.43-.66.43-1s-.49-1-.86-1-.5.37-.5.74S77.93,64.52,78.3,64.52Z"/><path class="cls-3" d="M65,8.58c.37,0,.82-.19.82-.56s-.32-1.31-.69-1.31-.69.54-.69.91S64.65,8.58,65,8.58Z"/><path class="cls-3" d="M80.67,8c.37,0,.88-.68.88-1.05s-.12-1-.49-1S80,6.33,80,6.7,80.3,8,80.67,8Z"/><path class="cls-3" d="M57.64,72.49h.87a.7.7,0,0,0-.44-.21A.59.59,0,0,0,57.64,72.49Z"/><path class="cls-3" d="M70.9,72.49h1c.25-.27.51-.67.31-.9s-.79-.49-1.07-.25-.6.78-.36,1.06Z"/><path class="cls-3" d="M73.51,13.32c.37,0,.82-.19.82-.56s-.12-1-.49-1-.89.28-.89.65S73.14,13.32,73.51,13.32Z"/><path class="cls-3" d="M72,18.8c-.37,0-.67.45-.67.82s.22.54.59.54.59-.08.59-.45S72.39,18.8,72,18.8Z"/><path class="cls-3" d="M56.7,32.93c.37,0,.59-.08.59-.45s-.14-.91-.51-.91a.72.72,0,0,0-.6.49v.63A.55.55,0,0,0,56.7,32.93Z"/><path class="cls-2" d="M71.93,72.49H85.12v52.76c-.13.14,0,.46,0,.74s-.25.77,0,.8v10.82l-.14.15c-.24.28-.57.66-.28.9a1,1,0,0,0,.43.21v3H56.18V138a.46.46,0,0,0,.19-.36.93.93,0,0,0-.19-.5V123.82c.3-.05.55-.23.55-.53s-.22-1-.55-1.06V103.62a.55.55,0,0,0,.52.24c.37,0,.59-.08.59-.45s-.14-.91-.51-.91a.72.72,0,0,0-.6.49V83.92c.33,0,.67,0,.67-.31s-.17-.76-.54-.76h-.13V72.49h1.47a1,1,0,0,0-.24.61.67.67,0,0,0,.67.67c.37,0,.82-.19.82-.56a1.11,1.11,0,0,0-.38-.71H70.9c.25.23.62.37.87.16Zm-13,41.12c0-.37-.45-.93-.82-.93s-.67.45-.67.82a.67.67,0,0,0,.67.67C58.44,114.17,58.89,114,58.89,113.61ZM61,96.69c0-.37-.45-.93-.82-.93s-.67.45-.67.82a.67.67,0,0,0,.67.67C60.53,97.25,61,97.06,61,96.69Zm1.2,33.38c0-.37-.24-1.06-.61-1.06s-.61.44-.61.81.1.81.47.81S62.18,130.44,62.18,130.07Zm1.43-41.84c.37,0,1.08-.37,1.08-.74s-.71-.74-1.08-.74-.67.45-.67.82A.67.67,0,0,0,63.61,88.23ZM65,120.66c0-.37-.24-1.06-.61-1.06s-.5.37-.5.74,0,.87.36.87S65,121,65,120.66Zm.83-12.4c0-.37-.11-.77-.48-.77s-.9,0-.9.37a.81.81,0,0,0,.69.8C65.51,108.66,65.84,108.63,65.84,108.26Zm0-29.31c0-.37-.32-1.31-.69-1.31s-.69.54-.69.91.2,1,.57,1S65.84,79.32,65.84,78.95Zm1.58,57.88a.89.89,0,0,0-.8-.78c-.37,0-.5.14-.5.51s0,.87.36.87S67.41,137.2,67.41,136.83Zm1.33-36.56c0-.37-.05-.78-.42-.78s-1,0-1,.38-.17,1,.2,1S68.74,100.64,68.74,100.27Zm4.89,17.15c0-.37-.12-1-.49-1s-.89.28-.89.65.2,1,.57,1S73.63,117.79,73.63,117.42Zm.8,9.56c-.37,0-.8.2-.8.57s0,.87.36.87.75-.18.75-.55S74.81,127,74.44,127Zm8.22-14.85c-.37,0-.69,0-.69.4s.2,1,.57,1,.82-.19.82-.56A.81.81,0,0,0,82.65,112.13ZM81.54,88.37c0,.37,0,.87.36.87s1,0,1-.4-.1-.8-.47-.8S81.54,88,81.54,88.37ZM80,77.63c0,.37.3,1.3.67,1.3s.88-.68.88-1.05-.12-1-.49-1S80,77.26,80,77.63Zm-2.37,20c0,.37.5.44.87.44s.82-.19.82-.56-.08-.71-.45-.71S77.63,97.25,77.63,97.61Zm-.26,36.52c0,.37.55,1.31.92,1.31s.43-.66.43-1-.49-1-.86-1S77.38,133.77,77.38,134.14Zm-3.19-27.09c0,.37-.17,1,.2,1s1.19-.19,1.19-.56-.12-1-.49-1S74.19,106.68,74.19,107.05ZM72.94,83.29c0,.37.2,1,.57,1s.82-.19.82-.56-.12-1-.49-1S72.94,82.92,72.94,83.29ZM72,89.73c-.37,0-.67.45-.67.82s.22.54.59.54.59-.08.59-.45S72.39,89.73,72,89.73Z"/><path class="cls-3" d="M64.69,87.49c0-.37-.71-.74-1.08-.74s-.67.45-.67.82a.67.67,0,0,0,.67.67C64,88.23,64.69,87.86,64.69,87.49Z"/><path class="cls-3" d="M58.07,112.68c-.37,0-.67.45-.67.82a.67.67,0,0,0,.67.67c.37,0,.82-.19.82-.56S58.44,112.68,58.07,112.68Z"/><path class="cls-3" d="M60.16,95.76c-.37,0-.67.45-.67.82a.67.67,0,0,0,.67.67c.37,0,.82-.19.82-.56S60.53,95.76,60.16,95.76Z"/><path class="cls-3" d="M56.37,137.61a.93.93,0,0,0-.19-.5V138A.46.46,0,0,0,56.37,137.61Z"/><path class="cls-3" d="M58.07,73.77c.37,0,.82-.19.82-.56a1.11,1.11,0,0,0-.38-.71h-.87a1,1,0,0,0-.24.61A.67.67,0,0,0,58.07,73.77Z"/><path class="cls-3" d="M78.5,98.06c.37,0,.82-.19.82-.56s-.08-.71-.45-.71-1.23.46-1.23.83S78.13,98.06,78.5,98.06Z"/><path class="cls-3" d="M68.32,99.48c-.37,0-1,0-1,.38s-.17,1,.2,1,1.19-.19,1.19-.56S68.69,99.48,68.32,99.48Z"/><path class="cls-3" d="M73.14,116.37c-.37,0-.89.28-.89.65s.2,1,.57,1,.82-.19.82-.56S73.51,116.37,73.14,116.37Z"/><path class="cls-3" d="M65.35,107.49c-.37,0-.9,0-.9.37a.81.81,0,0,0,.69.8c.37,0,.69,0,.69-.4S65.72,107.49,65.35,107.49Z"/><path class="cls-3" d="M74.39,108c.37,0,1.19-.19,1.19-.56s-.12-1-.49-1-.89.28-.89.65S74,108,74.39,108Z"/><path class="cls-3" d="M82,112.52c0,.37.2,1,.57,1s.82-.19.82-.56a.81.81,0,0,0-.69-.8C82.28,112.13,82,112.16,82,112.52Z"/><path class="cls-3" d="M71.77,72.65l.16-.16h-1C71.15,72.72,71.52,72.86,71.77,72.65Z"/><path class="cls-3" d="M56.85,83.61c0-.37-.17-.76-.54-.76h-.13v1.07C56.51,83.93,56.85,83.94,56.85,83.61Z"/><path class="cls-3" d="M81.9,89.24c.37,0,1,0,1-.4s-.1-.8-.47-.8-.86,0-.86.33S81.53,89.24,81.9,89.24Z"/><path class="cls-3" d="M56.73,123.29c0-.35-.22-1-.55-1.06v1.59C56.47,123.77,56.73,123.59,56.73,123.29Z"/><path class="cls-3" d="M85,137.77c-.24.28-.57.66-.28.9a1,1,0,0,0,.43.21v-1.26Z"/><path class="cls-3" d="M66.61,136.05c-.37,0-.5.14-.5.51s0,.87.36.87.95-.23.95-.6A.89.89,0,0,0,66.61,136.05Z"/><path class="cls-3" d="M61.57,129c-.37,0-.61.44-.61.81s.1.81.47.81.75-.18.75-.55S61.94,129,61.57,129Z"/><path class="cls-3" d="M64.39,119.6c-.37,0-.5.37-.5.74s0,.87.36.87.75-.18.75-.55S64.76,119.6,64.39,119.6Z"/><path class="cls-3" d="M74.44,127c-.37,0-.8.2-.8.57s0,.87.36.87.75-.18.75-.55S74.81,127,74.44,127Z"/><path class="cls-3" d="M85.07,126c0,.35-.25.77,0,.8v-1.54C85,125.39,85.07,125.71,85.07,126Z"/><path class="cls-3" d="M78.3,135.45c.37,0,.43-.66.43-1s-.49-1-.86-1-.5.37-.5.74S77.93,135.45,78.3,135.45Z"/><path class="cls-3" d="M65.14,77.63c-.37,0-.69.54-.69.91s.2,1,.57,1,.82-.19.82-.56S65.51,77.63,65.14,77.63Z"/><path class="cls-3" d="M80.67,78.93c.37,0,.88-.68.88-1.05s-.12-1-.49-1-1.05.44-1.05.81S80.3,78.93,80.67,78.93Z"/><path class="cls-3" d="M73.51,84.25c.37,0,.82-.19.82-.56s-.12-1-.49-1-.89.28-.89.65S73.14,84.25,73.51,84.25Z"/><path class="cls-3" d="M71.35,90.55c0,.37.22.54.59.54s.59-.08.59-.45-.14-.91-.51-.91S71.35,90.18,71.35,90.55Z"/><path class="cls-3" d="M56.7,103.86c.37,0,.59-.08.59-.45s-.14-.91-.51-.91a.72.72,0,0,0-.6.49v.63A.55.55,0,0,0,56.7,103.86Z"/><path class="cls-2" d="M1,72.49H1c.25-.27.51-.67.31-.9s-.79-.49-1.07-.25A1.46,1.46,0,0,0,0,71.6v-70a.66.66,0,0,0,.84.13L1,1.56c.25-.27.51-.67.31-.9S.51.16.23.4A1.46,1.46,0,0,0,0,.67V0H56.18V72.49H1ZM3.5,56c-.37,0-.8.2-.8.57s0,.87.36.87.75-.18.75-.55S3.87,56,3.5,56ZM22,72.49c-.07-.29-.2-.54-.43-.54a1,1,0,0,0-.88.54Zm17.43,0a.34.34,0,0,0-.21-.08.42.42,0,0,0-.25.08ZM51,47.54c0-.37-.55-1.29-.92-1.29s-.5.37-.5.74.34,1.28.71,1.28A.76.76,0,0,0,51,47.54Zm5.17,3.77h-.06c-.37,0-.5.37-.5.74s0,.87.36.87l.2,0Zm0-19.24a.88.88,0,0,0-.07.33.59.59,0,0,0,.07.3Zm-.71-19.78A.64.64,0,0,0,56,13h.13V11.92C55.84,11.92,55.46,12,55.46,12.28Zm-.58,54.3a.67.67,0,0,0,.67.67,1,1,0,0,0,.63-.2v-.86a.89.89,0,0,0-.63-.43C55.18,65.75,54.88,66.2,54.88,66.57Zm-1.66-27c.37,0,.75-.18.75-.55S53.73,38,53.36,38s-.5.37-.5.74S52.85,39.61,53.22,39.61ZM50.47,21.07c-.37,0-.33.32-.33.69s.62.73,1,.73.49-.25.49-.62S50.84,21.07,50.47,21.07ZM49.4,6.36a.67.67,0,0,0,.67.67c.37,0,.82-.19.82-.56s-.45-.93-.82-.93S49.4,6,49.4,6.36ZM47.1,57.42c0,.37-.07,1.1.3,1.1a.9.9,0,0,0,.81-.77c0-.37-.61-1.06-1-1.06S47.1,57,47.1,57.42ZM45.8,38.8c.37,0,1.24-.44,1.24-.81s-.43-.37-.8-.37-.8-.07-.8.3S45.43,38.8,45.8,38.8Zm-.31,28.44c.37,0,.75-.18.75-.55s-.24-1.06-.61-1.06-.5.37-.5.74S45.11,67.24,45.48,67.24ZM43.16,13.4a.67.67,0,0,0,.67.67c.37,0,.82-.19.82-.56s-.45-.93-.82-.93S43.16,13,43.16,13.4Zm0,15a.67.67,0,0,0,.67.67c.37,0,.82-.19.82-.56s-.82-.93-1.19-.93S43.16,28,43.16,28.36ZM39.78,47.11c-.37,0-.67.45-.67.82a.67.67,0,0,0,.67.67c.37,0,.82-.19.82-.56S40.15,47.11,39.78,47.11Zm-.68-44c.37,0,.75-.18.75-.55a1.45,1.45,0,0,0-.4-1,.34.34,0,0,0-.21-.08.42.42,0,0,0-.25.08.82.82,0,0,0-.24.66C38.74,2.59,38.73,3.09,39.1,3.09ZM37.38,56.2c-.3.22-.71.4-.49.7s.52.6.82.38.9-1.14.68-1.44S37.68,56,37.38,56.2Zm-.77-17.33a.67.67,0,0,0,.67.67c.37,0,.82-.19.82-.56s-.75-.93-1.12-.93S36.62,38.51,36.62,38.87ZM35.23,22.33c0,.37.2,1,.57,1s.82-.19.82-.56-.12-1-.49-1S35.23,22,35.23,22.33Zm-1.77-6.46c.37,0,.93.14.93-.23s-.28-.93-.65-.93-.65-.08-.65.29S33.09,15.87,33.46,15.87Zm-.73,49c0,.37-.19.81.18.81s.92,0,.92-.34-.41-1.27-.78-1.27S32.72,64.52,32.72,64.89ZM31.93,30.7c-.37,0-.79,1-.79,1.35s.28.26.65.26.75-.18.75-.55S32.3,30.7,31.93,30.7ZM30.5,7.11a.67.67,0,0,0,.67.67c.37,0,.82.18.82-.19s-.45-1.3-.82-1.3S30.5,6.74,30.5,7.11ZM29.39,46.25c.37,0,.75-.18.75-.55S30,45,29.58,45s-.55,0-.55.34S29,46.25,29.39,46.25Zm-1.93,8.82c.37,0,.75-.18.75-.55s.13-1.06-.24-1.06-.87.37-.87.74S27.08,55.06,27.45,55.06ZM25.33,26.38c0,.37.28.81.65.81s.75-.18.75-.55-.24-1.06-.61-1.06A.91.91,0,0,0,25.33,26.38ZM23.65,16c.37,0,.9-.13.9-.5s-.13-1.25-.5-1.25-.61.44-.61.81S23.28,16,23.65,16Zm-.1,45.29c.37,0,.75-.18.75-.55s-.18-.67-.55-.67-.55,0-.55.35S23.18,61.3,23.54,61.3Zm-1.66-25c-.37,0-.67.61-.67,1s.16.63.53.63,1-.5,1-.87A.91.91,0,0,0,21.88,36.28ZM20.69,1.66c0,.37.2,1,.57,1s.82-.19.82-.56a2.24,2.24,0,0,0-.06-.5c-.07-.29-.2-.54-.43-.54a1,1,0,0,0-.88.54A.41.41,0,0,0,20.69,1.66Zm-.2,47c.37,0,.75-.18.75-.55s-.24-1.06-.61-1.06-.5.37-.5.74S20.12,48.66,20.49,48.66Zm-2-27c0,.37,0,.87.36.87s1,0,1-.38a2,2,0,0,0-1.21-1.23C18.24,20.88,18.48,21.25,18.48,21.62ZM16.3,9.93a.67.67,0,0,0,.67.67c.37,0,.82-.19.82-.56a.68.68,0,0,0-.74-.6C16.67,9.43,16.3,9.56,16.3,9.93ZM14.78,31.51c.37,0,1.24-.8,1.24-1.17s-.73-.44-1.1-.44-.5.37-.5.74S14.41,31.51,14.78,31.51Zm-.65,23.55c0,.37-.28.81.09.81s1.08-.29,1.08-.66a1.24,1.24,0,0,0-.94-1C14,54.26,14.14,54.69,14.14,55.06Zm-.38,12.67c.28.24.69.34.93.06s.49-1,.21-1.21-.62,0-.85.25S13.48,67.5,13.76,67.74Zm-2-26.54c-.37,0-.69,0-.69.4s.2,1,.57,1,.82-.19.82-.56A.81.81,0,0,0,11.72,41.2ZM10.61,17.44c0,.37,0,.87.36.87s1,0,1-.4-.1-.8-.47-.8S10.61,17.07,10.61,17.44ZM9.07,6.7c0,.37.3,1.3.67,1.3s.88-.68.88-1.05-.12-1-.49-1S9.07,6.33,9.07,6.7Zm-2.37,20c0,.37.5.44.87.44s.82-.19.82-.56-.08-.72-.45-.72S6.7,26.31,6.7,26.68ZM6.44,63.21c0,.37.55,1.31.92,1.31s.43-.66.43-1-.49-1-.86-1S6.44,62.84,6.44,63.21ZM3.25,36.12c0,.37-.17,1,.2,1s1.19-.19,1.19-.56-.12-1-.49-1S3.25,35.75,3.25,36.12ZM2,12.36c0,.37.2,1,.57,1s.82-.19.82-.56-.12-1-.49-1S2,12,2,12.36Zm-.4,7.36c0-.37-.14-.91-.51-.91s-.67.45-.67.82.22.54.59.54S1.6,20.08,1.6,19.71Zm.28,27.34c.37,0,.82-.19.82-.56s-.12-1-.49-1-.89.28-.89.65S1.51,47.05,1.88,47.05Z"/><path class="cls-3" d="M.84,1.72,1,1.56c.25-.27.51-.67.31-.9S.51.16.23.4A1.46,1.46,0,0,0,0,.67v.92A.66.66,0,0,0,.84,1.72Z"/><path class="cls-3" d="M21.26,2.63c.37,0,.82-.19.82-.56a2.24,2.24,0,0,0-.06-.5c-.07-.29-.2-.54-.43-.54a1,1,0,0,0-.88.54.41.41,0,0,0,0,.1C20.69,2,20.89,2.63,21.26,2.63Z"/><path class="cls-3" d="M17,10.6c.37,0,.82-.19.82-.56a.68.68,0,0,0-.74-.6c-.37,0-.74.13-.74.5A.67.67,0,0,0,17,10.6Z"/><path class="cls-3" d="M31.17,7.78c.37,0,.82.18.82-.19s-.45-1.3-.82-1.3-.67.45-.67.82A.67.67,0,0,0,31.17,7.78Z"/><path class="cls-3" d="M43.83,14.07c.37,0,.82-.19.82-.56s-.45-.93-.82-.93-.67.45-.67.82A.67.67,0,0,0,43.83,14.07Z"/><path class="cls-3" d="M43.83,29c.37,0,.82-.19.82-.56s-.82-.93-1.19-.93-.3.45-.3.82A.67.67,0,0,0,43.83,29Z"/><path class="cls-3" d="M50.15,21.76c0,.37.62.73,1,.73s.49-.25.49-.62-.79-.79-1.16-.79S50.15,21.39,50.15,21.76Z"/><path class="cls-3" d="M37.29,39.54c.37,0,.82-.19.82-.56s-.75-.93-1.12-.93-.37.45-.37.82A.67.67,0,0,0,37.29,39.54Z"/><path class="cls-3" d="M39.11,47.93a.67.67,0,0,0,.67.67c.37,0,.82-.19.82-.56s-.45-.93-.82-.93S39.11,47.56,39.11,47.93Z"/><path class="cls-3" d="M50.07,7c.37,0,.82-.19.82-.56s-.45-.93-.82-.93-.67.45-.67.82A.67.67,0,0,0,50.07,7Z"/><path class="cls-3" d="M7.57,27.13c.37,0,.82-.19.82-.56s-.08-.72-.45-.72-1.23.46-1.23.83S7.2,27.13,7.57,27.13Z"/><path class="cls-3" d="M1.88,47.05c.37,0,.82-.19.82-.56s-.12-1-.49-1-.89.28-.89.65S1.51,47.05,1.88,47.05Z"/><path class="cls-3" d="M3.46,37.09c.37,0,1.19-.19,1.19-.56s-.12-1-.49-1-.89.28-.89.65S3.09,37.09,3.46,37.09Z"/><path class="cls-3" d="M11,41.59c0,.37.2,1,.57,1s.82-.19.82-.56a.81.81,0,0,0-.69-.8C11.35,41.2,11,41.22,11,41.59Z"/><path class="cls-3" d="M35.8,23.3c.37,0,.82-.19.82-.56s-.12-1-.49-1-.89.28-.89.65S35.43,23.3,35.8,23.3Z"/><path class="cls-3" d="M11,18.31c.37,0,1,0,1-.4s-.1-.8-.47-.8-.86,0-.86.33S10.6,18.31,11,18.31Z"/><path class="cls-3" d="M23.65,16c.37,0,.9-.13.9-.5s-.13-1.25-.5-1.25-.61.44-.61.81S23.28,16,23.65,16Z"/><path class="cls-3" d="M39.1,3.09c.37,0,.75-.18.75-.55a1.45,1.45,0,0,0-.4-1,.34.34,0,0,0-.21-.08.42.42,0,0,0-.25.08.82.82,0,0,0-.24.66C38.74,2.59,38.73,3.09,39.1,3.09Z"/><path class="cls-3" d="M33.46,15.87c.37,0,.93.14.93-.23s-.28-.93-.65-.93-.65-.08-.65.29S33.09,15.87,33.46,15.87Z"/><path class="cls-3" d="M18.84,22.49c.37,0,1,0,1-.38a2,2,0,0,0-1.21-1.23c-.37,0-.13.37-.13.74S18.47,22.49,18.84,22.49Z"/><path class="cls-3" d="M26,27.19c.37,0,.75-.18.75-.55s-.24-1.06-.61-1.06a.91.91,0,0,0-.79.81C25.33,26.75,25.62,27.19,26,27.19Z"/><path class="cls-3" d="M14.78,31.51c.37,0,1.24-.8,1.24-1.17s-.73-.44-1.1-.44-.5.37-.5.74S14.41,31.51,14.78,31.51Z"/><path class="cls-3" d="M21.21,37.26c0,.37.16.63.53.63s1-.5,1-.87a.91.91,0,0,0-.85-.74C21.51,36.28,21.21,36.89,21.21,37.26Z"/><path class="cls-3" d="M20.49,48.66c.37,0,.75-.18.75-.55s-.24-1.06-.61-1.06-.5.37-.5.74S20.12,48.66,20.49,48.66Z"/><path class="cls-3" d="M31.14,32.06c0,.37.28.26.65.26s.75-.18.75-.55-.24-1.06-.61-1.06S31.14,31.69,31.14,32.06Z"/><path class="cls-3" d="M29.39,46.25c.37,0,.75-.18.75-.55S30,45,29.58,45s-.55,0-.55.34S29,46.25,29.39,46.25Z"/><path class="cls-3" d="M27.45,55.06c.37,0,.75-.18.75-.55s.13-1.06-.24-1.06-.87.37-.87.74S27.08,55.06,27.45,55.06Z"/><path class="cls-3" d="M45.8,38.8c.37,0,1.24-.44,1.24-.81s-.43-.37-.8-.37-.8-.07-.8.3S45.43,38.8,45.8,38.8Z"/><path class="cls-3" d="M50.09,46.25c-.37,0-.5.37-.5.74s.34,1.28.71,1.28a.76.76,0,0,0,.71-.73C51,47.17,50.46,46.25,50.09,46.25Z"/><path class="cls-3" d="M53.22,39.61c.37,0,.75-.18.75-.55S53.73,38,53.36,38s-.5.37-.5.74S52.85,39.61,53.22,39.61Z"/><path class="cls-3" d="M47.1,57.42c0,.37-.07,1.1.3,1.1a.9.9,0,0,0,.81-.77c0-.37-.61-1.06-1-1.06S47.1,57,47.1,57.42Z"/><path class="cls-3" d="M45.48,67.24c.37,0,.75-.18.75-.55s-.24-1.06-.61-1.06-.5.37-.5.74S45.11,67.24,45.48,67.24Z"/><path class="cls-3" d="M32.9,65.69c.37,0,.92,0,.92-.34s-.41-1.27-.78-1.27-.32.44-.32.81S32.53,65.69,32.9,65.69Z"/><path class="cls-3" d="M36.9,56.9c.22.3.52.6.82.38s.9-1.14.68-1.44-.72.14-1,.36S36.68,56.61,36.9,56.9Z"/><path class="cls-3" d="M23.54,61.3c.37,0,.75-.18.75-.55s-.18-.67-.55-.67-.55,0-.55.35S23.18,61.3,23.54,61.3Z"/><path class="cls-3" d="M13.76,67.74c.28.24.69.34.93.06s.49-1,.21-1.21-.62,0-.85.25S13.48,67.5,13.76,67.74Z"/><path class="cls-3" d="M3.5,56c-.37,0-.8.2-.8.57s0,.87.36.87.75-.18.75-.55S3.87,56,3.5,56Z"/><path class="cls-3" d="M14.23,55.87c.37,0,1.08-.29,1.08-.66a1.24,1.24,0,0,0-.94-1c-.37,0-.23.44-.23.81S13.86,55.87,14.23,55.87Z"/><path class="cls-3" d="M7.37,64.52c.37,0,.43-.66.43-1s-.49-1-.86-1-.5.37-.5.74S7,64.52,7.37,64.52Z"/><path class="cls-3" d="M9.74,8c.37,0,.88-.68.88-1.05s-.12-1-.49-1-1.05.44-1.05.81S9.37,8,9.74,8Z"/><path class="cls-3" d="M1.31,71.59c-.24-.28-.79-.49-1.07-.25A1.46,1.46,0,0,0,0,71.6v.89H1C1.25,72.22,1.51,71.82,1.31,71.59Z"/><path class="cls-3" d="M39,72.49h.46a.34.34,0,0,0-.21-.08A.42.42,0,0,0,39,72.49Z"/><path class="cls-3" d="M21.59,71.95a1,1,0,0,0-.88.54H22C21.95,72.21,21.81,71.95,21.59,71.95Z"/><path class="cls-3" d="M2.58,13.32c.37,0,.82-.19.82-.56s-.12-1-.49-1S2,12,2,12.36,2.21,13.32,2.58,13.32Z"/><path class="cls-3" d="M1.6,19.71c0-.37-.14-.91-.51-.91s-.67.45-.67.82.22.54.59.54S1.6,20.08,1.6,19.71Z"/><path class="cls-3" d="M55.55,67.24a1,1,0,0,0,.63-.2v-.86a.89.89,0,0,0-.63-.43c-.37,0-.67.45-.67.82A.67.67,0,0,0,55.55,67.24Z"/><path class="cls-3" d="M56,13h.13V11.92c-.34,0-.71,0-.71.36A.64.64,0,0,0,56,13Z"/><path class="cls-3" d="M55.62,52c0,.37,0,.87.36.87l.2,0V51.3h-.06C55.75,51.3,55.62,51.67,55.62,52Z"/><path class="cls-3" d="M56.18,32.69v-.63a.88.88,0,0,0-.07.33A.59.59,0,0,0,56.18,32.69Z"/><path class="cls-2" d="M56.18,141.86H0V72.52a.66.66,0,0,0,.84.13L1,72.49H20.71a.4.4,0,0,0,0,.1c0,.37.2,1,.57,1s.82-.19.82-.56a2.24,2.24,0,0,0-.06-.5H39a.81.81,0,0,0-.24.66c0,.37,0,.87.36.87s.75-.18.75-.55a1.45,1.45,0,0,0-.4-1H56.18v69.37ZM2,83.29c0,.37.2,1,.57,1s.82-.19.82-.56-.12-1-.49-1S2,82.92,2,83.29ZM1,91.09c.37,0,.59-.08.59-.45s-.14-.91-.51-.91-.67.45-.67.82S.64,91.09,1,91.09ZM2.7,117.42c0-.37-.12-1-.49-1s-.89.28-.89.65.2,1,.57,1S2.7,117.79,2.7,117.42ZM3.5,127c-.37,0-.8.2-.8.57s0,.87.36.87.75-.18.75-.55S3.87,127,3.5,127Zm1.14-19.52c0-.37-.12-1-.49-1s-.89.28-.89.65-.17,1,.2,1S4.64,107.82,4.64,107.45Zm3.16,27c0-.37-.49-1-.86-1s-.5.37-.5.74.55,1.31.92,1.31S7.8,134.79,7.8,134.42ZM8.39,97.5c0-.37-.08-.71-.45-.71s-1.23.46-1.23.83.5.44.87.44S8.39,97.87,8.39,97.5Zm2.23-19.62c0-.37-.12-1-.49-1s-1.05.44-1.05.81.3,1.3.67,1.3S10.61,78.25,10.61,77.88ZM11,89.24c.37,0,1,0,1-.4s-.1-.8-.47-.8-.86,0-.86.33S10.6,89.24,11,89.24Zm1.45,23.69a.81.81,0,0,0-.69-.8c-.37,0-.69,0-.69.4s.2,1,.57,1S12.42,113.3,12.42,112.93Zm2.48,24.59c-.28-.24-.62,0-.85.25s-.57.66-.28.9.69.34.93.06S15.18,137.75,14.9,137.52Zm.41-11.38a1.24,1.24,0,0,0-.94-1c-.37,0-.23.44-.23.81s-.28.81.09.81S15.31,126.51,15.31,126.14ZM16,101.27c0-.37-.73-.44-1.1-.44s-.5.37-.5.74,0,.87.36.87S16,101.64,16,101.27ZM17.79,81a.68.68,0,0,0-.74-.6c-.37,0-.74.13-.74.5a.67.67,0,0,0,.67.67C17.34,81.53,17.79,81.34,17.79,81Zm2,12.07a2,2,0,0,0-1.21-1.23c-.37,0-.13.37-.13.74s0,.87.36.87S19.81,93.41,19.81,93Zm1.43,26c0-.37-.24-1.06-.61-1.06s-.5.37-.5.74,0,.87.36.87S21.25,119.42,21.25,119ZM22.73,108a.91.91,0,0,0-.85-.74c-.37,0-.67.61-.67,1s.16.63.53.63S22.73,108.33,22.73,108Zm1.57,23.73c0-.37-.18-.67-.55-.67s-.55,0-.55.35,0,.87.36.87S24.3,132.05,24.3,131.68Zm.25-45.25c0-.37-.13-1.25-.5-1.25s-.61.44-.61.81-.17.94.2.94S24.55,86.81,24.55,86.44Zm2.19,11.13c0-.37-.24-1.06-.61-1.06a.91.91,0,0,0-.79.81c0,.37.28.81.65.81S26.74,97.94,26.74,97.57ZM28,124.38c-.37,0-.87.37-.87.74s0,.87.36.87.75-.18.75-.55S28.33,124.38,28,124.38Zm2.18-7.76c0-.37-.18-.66-.55-.66s-.55,0-.55.34,0,.87.36.87S30.14,117,30.14,116.63Zm1-37.92c.37,0,.82.18.82-.19s-.45-1.3-.82-1.3-.67.45-.67.82A.67.67,0,0,0,31.17,78.71Zm1.37,24c0-.37-.24-1.06-.61-1.06s-.79,1-.79,1.35.28.26.65.26S32.54,103.07,32.54,102.7Zm1.28,33.59c0-.37-.41-1.27-.78-1.27s-.32.44-.32.81-.19.81.18.81S33.82,136.65,33.82,136.28Zm.57-49.71c0-.37-.28-.93-.65-.93s-.65-.08-.65.29,0,.87.36.87S34.39,86.94,34.39,86.57Zm2.23,7.09c0-.37-.12-1-.49-1s-.89.28-.89.65.2,1,.57,1S36.62,94,36.62,93.66Zm.67,16.81c.37,0,.82-.19.82-.56S37.36,109,37,109s-.37.45-.37.82A.67.67,0,0,0,37.29,110.48Zm1.11,16.3c-.22-.3-.72.14-1,.36s-.71.4-.49.7.52.6.82.38S38.62,127.07,38.4,126.77Zm2.19-7.8c0-.37-.45-.93-.82-.93s-.67.45-.67.82a.67.67,0,0,0,.67.67C40.15,119.53,40.59,119.34,40.59,119ZM44.65,99.4c0-.37-.82-.93-1.19-.93s-.3.45-.3.82a.67.67,0,0,0,.67.67C44.2,100,44.65,99.77,44.65,99.4Zm0-15c0-.37-.45-.93-.82-.93s-.67.45-.67.82a.67.67,0,0,0,.67.67C44.2,85,44.65,84.8,44.65,84.43Zm1.59,53.19c0-.37-.24-1.06-.61-1.06s-.5.37-.5.74,0,.87.36.87S46.24,138,46.24,137.62Zm.8-28.7c0-.37-.43-.37-.8-.37s-.8-.07-.8.3,0,.87.36.87S47,109.29,47,108.92Zm1.18,19.74c0-.37-.61-1.06-1-1.06s-.13.37-.13.74-.07,1.1.3,1.1A.9.9,0,0,0,48.21,128.67ZM49.4,77.29a.67.67,0,0,0,.67.67c.37,0,.82-.19.82-.56s-.45-.93-.82-.93S49.4,76.92,49.4,77.29ZM51,118.47c0-.37-.55-1.29-.92-1.29s-.5.37-.5.74.34,1.28.71,1.28A.76.76,0,0,0,51,118.47Zm.63-25.67c0-.37-.79-.79-1.16-.79s-.33.32-.33.69.62.73,1,.73S51.63,93.17,51.63,92.8ZM54,110c0-.37-.24-1.06-.61-1.06s-.5.37-.5.74,0,.87.36.87S54,110.36,54,110Zm2.21,27.13a.89.89,0,0,0-.63-.43c-.37,0-.67.45-.67.82a.67.67,0,0,0,.67.67,1,1,0,0,0,.63-.2Zm0-14.88h-.06c-.37,0-.5.37-.5.74s0,.87.36.87l.2,0Zm0-19.24a.87.87,0,0,0-.07.33.59.59,0,0,0,.07.3Zm0-19.07V82.85c-.34,0-.71,0-.71.36a.64.64,0,0,0,.59.71Z"/><path class="cls-3" d="M17,80.37c-.37,0-.74.13-.74.5a.67.67,0,0,0,.67.67c.37,0,.82-.19.82-.56A.68.68,0,0,0,17,80.37Z"/><path class="cls-3" d="M32,78.51c0-.37-.45-1.3-.82-1.3s-.67.45-.67.82a.67.67,0,0,0,.67.67C31.54,78.71,32,78.88,32,78.51Z"/><path class="cls-3" d="M43.83,83.51c-.37,0-.67.45-.67.82a.67.67,0,0,0,.67.67c.37,0,.82-.19.82-.56S44.2,83.51,43.83,83.51Z"/><path class="cls-3" d="M43.46,98.47c-.37,0-.3.45-.3.82a.67.67,0,0,0,.67.67c.37,0,.82-.19.82-.56S43.83,98.47,43.46,98.47Z"/><path class="cls-3" d="M50.47,92c-.37,0-.33.32-.33.69s.62.73,1,.73.49-.26.49-.62S50.84,92,50.47,92Z"/><path class="cls-3" d="M38.11,109.91c0-.37-.75-.93-1.12-.93s-.37.45-.37.82a.67.67,0,0,0,.67.67C37.66,110.48,38.11,110.28,38.11,109.91Z"/><path class="cls-3" d="M39.78,118c-.37,0-.67.45-.67.82a.67.67,0,0,0,.67.67c.37,0,.82-.19.82-.56S40.15,118,39.78,118Z"/><path class="cls-3" d="M50.07,78c.37,0,.82-.19.82-.56s-.45-.93-.82-.93-.67.45-.67.82A.67.67,0,0,0,50.07,78Z"/><path class="cls-3" d="M7.93,96.78c-.37,0-1.23.46-1.23.83s.5.44.87.44.82-.19.82-.56S8.3,96.78,7.93,96.78Z"/><path class="cls-3" d="M2.21,116.37c-.37,0-.89.28-.89.65s.2,1,.57,1,.82-.19.82-.56S2.58,116.37,2.21,116.37Z"/><path class="cls-3" d="M4.15,106.41c-.37,0-.89.28-.89.65s-.17,1,.2,1,1.19-.19,1.19-.56S4.52,106.41,4.15,106.41Z"/><path class="cls-3" d="M11.72,112.13c-.37,0-.69,0-.69.4s.2,1,.57,1,.82-.19.82-.56A.81.81,0,0,0,11.72,112.13Z"/><path class="cls-3" d="M36.13,92.62c-.37,0-.89.28-.89.65s.2,1,.57,1,.82-.19.82-.56S36.5,92.62,36.13,92.62Z"/><path class="cls-3" d="M.84,72.65,1,72.49H0v0A.66.66,0,0,0,.84,72.65Z"/><path class="cls-3" d="M11.94,88.84c0-.37-.1-.8-.47-.8s-.86,0-.86.33,0,.87.36.87S11.94,89.21,11.94,88.84Z"/><path class="cls-3" d="M24.05,85.19c-.37,0-.61.44-.61.81s-.17.94.2.94.9-.13.9-.5S24.42,85.19,24.05,85.19Z"/><path class="cls-3" d="M38.74,73.15c0,.37,0,.87.36.87s.75-.18.75-.55a1.45,1.45,0,0,0-.4-1H39A.81.81,0,0,0,38.74,73.15Z"/><path class="cls-3" d="M33.75,85.64c-.37,0-.65-.08-.65.29s0,.87.36.87.93.14.93-.23S34.12,85.64,33.75,85.64Z"/><path class="cls-3" d="M18.61,91.81c-.37,0-.13.37-.13.74s0,.87.36.87,1,0,1-.38A2,2,0,0,0,18.61,91.81Z"/><path class="cls-3" d="M26.13,96.51a.91.91,0,0,0-.79.81c0,.37.28.81.65.81s.75-.18.75-.55S26.5,96.51,26.13,96.51Z"/><path class="cls-3" d="M14.92,100.83c-.37,0-.5.37-.5.74s0,.87.36.87,1.24-.8,1.24-1.17S15.29,100.83,14.92,100.83Z"/><path class="cls-3" d="M21.88,107.21c-.37,0-.67.61-.67,1s.16.63.53.63,1-.5,1-.87A.91.91,0,0,0,21.88,107.21Z"/><path class="cls-3" d="M20.63,118c-.37,0-.5.37-.5.74s0,.87.36.87.75-.18.75-.55S21,118,20.63,118Z"/><path class="cls-3" d="M31.93,101.64c-.37,0-.79,1-.79,1.35s.28.26.65.26.75-.18.75-.55S32.3,101.64,31.93,101.64Z"/><path class="cls-3" d="M29.58,116c-.37,0-.55,0-.55.34s0,.87.36.87.75-.18.75-.55S30,116,29.58,116Z"/><path class="cls-3" d="M28,124.38c-.37,0-.87.37-.87.74s0,.87.36.87.75-.18.75-.55S28.33,124.38,28,124.38Z"/><path class="cls-3" d="M46.24,108.56c-.37,0-.8-.07-.8.3s0,.87.36.87,1.24-.44,1.24-.81S46.61,108.56,46.24,108.56Z"/><path class="cls-3" d="M50.09,117.18c-.37,0-.5.37-.5.74s.34,1.28.71,1.28a.76.76,0,0,0,.71-.73C51,118.1,50.46,117.18,50.09,117.18Z"/><path class="cls-3" d="M53.36,108.92c-.37,0-.5.37-.5.74s0,.87.36.87.75-.18.75-.55S53.73,108.92,53.36,108.92Z"/><path class="cls-3" d="M47.23,127.61c-.37,0-.13.37-.13.74s-.07,1.1.3,1.1a.9.9,0,0,0,.81-.77C48.21,128.3,47.6,127.61,47.23,127.61Z"/><path class="cls-3" d="M45.62,136.56c-.37,0-.5.37-.5.74s0,.87.36.87.75-.18.75-.55S46,136.56,45.62,136.56Z"/><path class="cls-3" d="M33,135c-.37,0-.32.44-.32.81s-.19.81.18.81.92,0,.92-.34S33.41,135,33,135Z"/><path class="cls-3" d="M37.38,127.14c-.3.22-.71.4-.49.7s.52.6.82.38.9-1.14.68-1.44S37.68,126.92,37.38,127.14Z"/><path class="cls-3" d="M23.74,131c-.37,0-.55,0-.55.35s0,.87.36.87.75-.18.75-.55S24.11,131,23.74,131Z"/><path class="cls-3" d="M14,137.77c-.24.28-.57.66-.28.9s.69.34.93.06.49-1,.21-1.21S14.28,137.48,14,137.77Z"/><path class="cls-3" d="M3.5,127c-.37,0-.8.2-.8.57s0,.87.36.87.75-.18.75-.55S3.87,127,3.5,127Z"/><path class="cls-3" d="M14.37,125.19c-.37,0-.23.44-.23.81s-.28.81.09.81,1.08-.29,1.08-.66A1.24,1.24,0,0,0,14.37,125.19Z"/><path class="cls-3" d="M6.94,133.4c-.37,0-.5.37-.5.74s.55,1.31.92,1.31.43-.66.43-1S7.31,133.4,6.94,133.4Z"/><path class="cls-3" d="M10.12,76.83c-.37,0-1.05.44-1.05.81s.3,1.3.67,1.3.88-.68.88-1.05S10.49,76.83,10.12,76.83Z"/><path class="cls-3" d="M20.69,72.59c0,.37.2,1,.57,1s.82-.19.82-.56a2.24,2.24,0,0,0-.06-.5H20.71A.4.4,0,0,0,20.69,72.59Z"/><path class="cls-3" d="M2.58,84.25c.37,0,.82-.19.82-.56s-.12-1-.49-1-.89.28-.89.65S2.21,84.25,2.58,84.25Z"/><path class="cls-3" d="M1.6,90.64c0-.37-.14-.91-.51-.91s-.67.45-.67.82.22.54.59.54S1.6,91,1.6,90.64Z"/><path class="cls-3" d="M55.55,136.69c-.37,0-.67.45-.67.82a.67.67,0,0,0,.67.67,1,1,0,0,0,.63-.2v-.86A.89.89,0,0,0,55.55,136.69Z"/><path class="cls-3" d="M55.46,83.21a.64.64,0,0,0,.59.71h.13V82.85C55.84,82.85,55.46,82.88,55.46,83.21Z"/><path class="cls-3" d="M55.62,123c0,.37,0,.87.36.87l.2,0v-1.59h-.06C55.75,122.23,55.62,122.6,55.62,123Z"/><path class="cls-3" d="M56.18,103.62V103a.87.87,0,0,0-.07.33A.59.59,0,0,0,56.18,103.62Z"/></pattern></defs><title>Asset 1</title><g id="Layer_2" data-name="Layer 2"><g id="Blog_post" data-name="Blog post"><rect class="cls-4" width="1024" height="130"/></g></g></svg>