<svg xmlns="http://www.w3.org/2000/svg" viewBox="0 0 239.37 212.62"><defs><style>.cls-1,.cls-2{fill:none;stroke-linejoin:round;stroke-width:51px;}.cls-1{stroke:#000;}.cls-2{stroke:#fff;}.cls-3{fill:#fff;}</style></defs><title>Asset 2</title><g id="Layer_2" data-name="Layer 2"><g id="Layer_1-2" data-name="Layer 1"><path class="cls-1" d="M214.61,24.64q-2,8-4.65,15.91C200,66.26,184.42,87.66,165.35,109s-48.18,39.39-75.49,52.25c-4.45,1.75-9.12,3.71-14,5.76"/><polygon points="74.72 110.64 2.28 189.11 106.46 212.62 74.72 110.64"/><path class="cls-2" d="M204.28,9.59q-2,8-4.65,15.91a206.39,206.39,0,0,1-41.77,71.11,220.58,220.58,0,0,1-70.28,52.27c-4.45,1.75-9.12,3.71-14,5.76"/><polygon class="cls-3" points="72.44 98.31 0 176.77 104.17 200.28 72.44 98.31"/></g></g></svg>