<svg xmlns="http://www.w3.org/2000/svg" viewBox="0 0 130.75 239.02"><defs><style>.cls-1{fill:#231f20;}.cls-2{fill:#fff;}</style></defs><title>Asset 17</title><g id="Layer_2" data-name="Layer 2"><g id="assets"><path class="cls-1" d="M61.86,239q-17.12,0-29.31-4.92a43.12,43.12,0,0,1-19.2-14.49,63.25,63.25,0,0,1-10.17-21.9A115.73,115.73,0,0,1,0,169.07v-8H46.22v7.82q.13,17.12,3.5,24.19T62.4,200.2q9,0,12-6.87t3-22.91q0-17.52-4.92-25.61t-18.53-8.49H45.82V104H53.1q14-.13,19.14-7.61t5.12-24.73q0-13.61-3.57-20.08T61.32,45.09q-8.76,0-11.86,6.94T46.22,72.58V84H0V70.56Q0,40.64,16.24,24.33T61.18,8q29.38,0,45.55,15.57t16.17,45.08q0,19-7.75,32.34T95.41,117.59q27.49,10,27.49,51.62a110.31,110.31,0,0,1-3.3,28.3,63.7,63.7,0,0,1-10.38,21.9A44.93,44.93,0,0,1,90.16,234Q78.16,239,61.86,239Z"/><path class="cls-2" d="M69.7,231q-17.12,0-29.31-4.92a43.12,43.12,0,0,1-19.2-14.49A63.25,63.25,0,0,1,11,189.68,115.74,115.74,0,0,1,7.84,161v-8H54.06v7.82q.13,17.12,3.5,24.19t12.67,7.08q9,0,12-6.87t3-22.91q0-17.52-4.92-25.61T61.75,128.3H53.66V96h7.28q14-.13,19.14-7.61T85.2,63.61q0-13.61-3.57-20.08T69.16,37.06Q60.4,37.06,57.3,44T54.06,64.55V76H7.84V62.53q0-29.92,16.24-46.22T69,0Q98.4,0,114.57,15.57t16.17,45.08q0,19-7.75,32.34t-19.74,16.58q27.49,10,27.49,51.62a110.31,110.31,0,0,1-3.3,28.3,63.7,63.7,0,0,1-10.38,21.9A44.93,44.93,0,0,1,98,225.93Q86,231,69.7,231Z"/></g></g></svg>