<svg xmlns="http://www.w3.org/2000/svg" viewBox="0 0 130.54 237.97"><defs><style>.cls-1{fill:#231f20;}.cls-2{fill:#fff;}</style></defs><title>Asset 16</title><g id="Layer_2" data-name="Layer 2"><g id="assets"><path class="cls-1" d="M.13,238V205.35L53.1,123q1.35-2.15,5.26-8t5.73-8.76q1.82-3,4.85-8.42a74.18,74.18,0,0,0,4.51-9.37,74.45,74.45,0,0,0,2.7-9,41.82,41.82,0,0,0,1.21-9.77q0-10.51-4.58-15.63a11.71,11.71,0,0,0-9.43-3.91,21.49,21.49,0,0,0-3.23.27A14.6,14.6,0,0,0,48.45,59q-3.71,7.41-3.71,22.24V92H0V80.43A100.72,100.72,0,0,1,3.5,52.87,65.23,65.23,0,0,1,14.29,31,47,47,0,0,1,33.76,16.21Q46,11,62.26,11,92,11,107.54,26.59T123,70.32a67,67,0,0,1-.54,8.42Q122,83,121.36,86.42a47.93,47.93,0,0,1-2.16,7.75l-2.49,6.94a57.07,57.07,0,0,1-3.37,7.14q-2.43,4.52-3.44,6.47t-4.11,6.74q-3.1,4.79-4,6.2t-4.51,6.67q-3.57,5.26-4.38,6.33L52,201.71h64.82V238Z"/><path class="cls-2" d="M7.63,226.95V194.33L60.6,112q1.35-2.15,5.26-8t5.73-8.76q1.82-3,4.85-8.42a74.18,74.18,0,0,0,4.51-9.37,74.45,74.45,0,0,0,2.7-9,41.82,41.82,0,0,0,1.21-9.77q0-10.51-4.58-15.63a11.71,11.71,0,0,0-9.43-3.91,21.49,21.49,0,0,0-3.23.27A14.6,14.6,0,0,0,55.95,48q-3.71,7.41-3.71,22.24V81H7.5V69.4A100.72,100.72,0,0,1,11,41.84a65.23,65.23,0,0,1,10.78-21.9A47,47,0,0,1,41.26,5.19Q53.45,0,69.76,0,99.54,0,115,15.57t15.5,43.73a67,67,0,0,1-.54,8.42q-.54,4.25-1.15,7.68a47.93,47.93,0,0,1-2.16,7.75l-2.49,6.94a57.07,57.07,0,0,1-3.37,7.14q-2.43,4.52-3.44,6.47t-4.11,6.74q-3.1,4.79-4,6.2t-4.51,6.67q-3.57,5.26-4.38,6.33l-40.83,61h64.82v36.25Z"/></g></g></svg>